<mxfile host="app.diagrams.net" modified="2020-08-23T15:57:36.290Z" agent="5.0 (X11)" etag="71-a06GOZa6xpde6con5" version="13.6.4" type="github">
  <diagram id="kgpKYQtTHZ0yAKxKKP6v" name="Page-1">
    <mxGraphModel dx="1422" dy="797" grid="1" gridSize="10" guides="1" tooltips="1" connect="1" arrows="1" fold="1" page="1" pageScale="1" pageWidth="850" pageHeight="1100" math="0" shadow="0">
      <root>
        <mxCell id="0" />
        <mxCell id="1" parent="0" />
        <mxCell id="3nuBFxr9cyL0pnOWT2aG-1" value="Diagrama de Fluxo de Arquitetura - Porta de abertura automatizada" style="shape=table;childLayout=tableLayout;rowLines=0;columnLines=0;startSize=40;html=1;whiteSpace=wrap;collapsible=0;recursiveResize=0;expand=0;fontStyle=1" parent="1" vertex="1">
          <mxGeometry x="30" y="220" width="790" height="686" as="geometry" />
        </mxCell>
        <mxCell id="3nuBFxr9cyL0pnOWT2aG-3" value="&lt;div&gt;Transeunte&lt;/div&gt;" style="swimlane;horizontal=0;points=[[0,0.5],[1,0.5]];portConstraint=eastwest;startSize=40;html=1;whiteSpace=wrap;collapsible=0;recursiveResize=0;expand=0;" parent="3nuBFxr9cyL0pnOWT2aG-1" vertex="1">
          <mxGeometry y="40" width="790" height="250" as="geometry" />
        </mxCell>
        <mxCell id="3nuBFxr9cyL0pnOWT2aG-4" value="Aproximação da porta" style="swimlane;connectable=0;startSize=40;html=1;whiteSpace=wrap;collapsible=0;recursiveResize=0;expand=0;" parent="3nuBFxr9cyL0pnOWT2aG-3" vertex="1">
          <mxGeometry x="40" width="167" height="250" as="geometry" />
        </mxCell>
        <mxCell id="zc3OXPmS9KC0s0hsTYdk-58" style="edgeStyle=orthogonalEdgeStyle;rounded=0;orthogonalLoop=1;jettySize=auto;html=1;exitX=0.5;exitY=1;exitDx=0;exitDy=0;entryX=0.5;entryY=0;entryDx=0;entryDy=0;" edge="1" parent="3nuBFxr9cyL0pnOWT2aG-4" source="zc3OXPmS9KC0s0hsTYdk-57" target="zc3OXPmS9KC0s0hsTYdk-56">
          <mxGeometry relative="1" as="geometry" />
        </mxCell>
        <mxCell id="zc3OXPmS9KC0s0hsTYdk-59" value="01" style="edgeLabel;html=1;align=center;verticalAlign=middle;resizable=0;points=[];" vertex="1" connectable="0" parent="zc3OXPmS9KC0s0hsTYdk-58">
          <mxGeometry x="-0.2288" y="1" relative="1" as="geometry">
            <mxPoint x="15.5" y="3.03" as="offset" />
          </mxGeometry>
        </mxCell>
        <mxCell id="zc3OXPmS9KC0s0hsTYdk-57" value="&lt;font style=&quot;font-size: 11px&quot;&gt;Transeunte se aproxima&lt;/font&gt;" style="rounded=1;whiteSpace=wrap;html=1;arcSize=50;" vertex="1" parent="3nuBFxr9cyL0pnOWT2aG-4">
          <mxGeometry x="38.5" y="61.75" width="90" height="40" as="geometry" />
        </mxCell>
        <mxCell id="zc3OXPmS9KC0s0hsTYdk-56" value="&lt;font style=&quot;font-size: 11px&quot;&gt;Transeunte se posiciona na distância ideal de detecção&lt;/font&gt;" style="rounded=0;whiteSpace=wrap;html=1;" vertex="1" parent="3nuBFxr9cyL0pnOWT2aG-4">
          <mxGeometry x="38.5" y="140" width="90" height="70" as="geometry" />
        </mxCell>
        <mxCell id="3nuBFxr9cyL0pnOWT2aG-8" value="Processamento de ações" style="swimlane;connectable=0;startSize=40;html=1;whiteSpace=wrap;collapsible=0;recursiveResize=0;expand=0;" parent="3nuBFxr9cyL0pnOWT2aG-3" vertex="1">
          <mxGeometry x="207" width="428" height="250" as="geometry" />
        </mxCell>
        <mxCell id="zc3OXPmS9KC0s0hsTYdk-14" value="&lt;font style=&quot;font-size: 11px&quot;&gt;Requisitar confirmação de credenciais ao indivíduo&lt;/font&gt;" style="rounded=0;whiteSpace=wrap;html=1;" vertex="1" parent="3nuBFxr9cyL0pnOWT2aG-8">
          <mxGeometry x="142.12" y="80" width="90" height="60" as="geometry" />
        </mxCell>
        <mxCell id="3nuBFxr9cyL0pnOWT2aG-11" value="Ações finais" style="swimlane;connectable=0;startSize=40;html=1;whiteSpace=wrap;collapsible=0;recursiveResize=0;expand=0;" parent="3nuBFxr9cyL0pnOWT2aG-3" vertex="1">
          <mxGeometry x="635" width="155" height="250" as="geometry" />
        </mxCell>
        <mxCell id="zc3OXPmS9KC0s0hsTYdk-35" value="&lt;div&gt;Transeunte&lt;/div&gt;&lt;div&gt; pode efetuar&lt;/div&gt;&lt;div&gt; sua entrada&lt;/div&gt;" style="rounded=0;whiteSpace=wrap;html=1;" vertex="1" parent="3nuBFxr9cyL0pnOWT2aG-11">
          <mxGeometry x="30" y="100" width="95" height="51.75" as="geometry" />
        </mxCell>
        <mxCell id="3nuBFxr9cyL0pnOWT2aG-15" value="&lt;div&gt;Sensor de proximidade&lt;/div&gt;" style="swimlane;horizontal=0;points=[[0,0.5],[1,0.5]];portConstraint=eastwest;startSize=40;html=1;whiteSpace=wrap;collapsible=0;recursiveResize=0;expand=0;" parent="3nuBFxr9cyL0pnOWT2aG-1" vertex="1">
          <mxGeometry y="290" width="790" height="396" as="geometry" />
        </mxCell>
        <mxCell id="3nuBFxr9cyL0pnOWT2aG-16" value="" style="swimlane;connectable=0;startSize=0;html=1;whiteSpace=wrap;collapsible=0;recursiveResize=0;expand=0;" parent="3nuBFxr9cyL0pnOWT2aG-15" vertex="1">
          <mxGeometry x="40" width="167" height="396" as="geometry" />
        </mxCell>
        <mxCell id="zc3OXPmS9KC0s0hsTYdk-55" value="&lt;font style=&quot;font-size: 11px&quot;&gt;Sensor detecta o indivíduo diante da porta&lt;/font&gt;" style="rounded=0;whiteSpace=wrap;html=1;" vertex="1" parent="3nuBFxr9cyL0pnOWT2aG-16">
          <mxGeometry x="36" y="16.75" width="95" height="56.5" as="geometry" />
        </mxCell>
        <mxCell id="3nuBFxr9cyL0pnOWT2aG-18" value="" style="swimlane;connectable=0;startSize=0;html=1;whiteSpace=wrap;collapsible=0;recursiveResize=0;expand=0;" parent="3nuBFxr9cyL0pnOWT2aG-15" vertex="1">
          <mxGeometry x="207" width="428" height="396" as="geometry" />
        </mxCell>
        <mxCell id="zc3OXPmS9KC0s0hsTYdk-5" style="edgeStyle=orthogonalEdgeStyle;rounded=0;orthogonalLoop=1;jettySize=auto;html=1;exitX=0.5;exitY=1;exitDx=0;exitDy=0;entryX=0.5;entryY=0;entryDx=0;entryDy=0;" edge="1" parent="3nuBFxr9cyL0pnOWT2aG-18" source="3nuBFxr9cyL0pnOWT2aG-9" target="zc3OXPmS9KC0s0hsTYdk-2">
          <mxGeometry relative="1" as="geometry" />
        </mxCell>
        <mxCell id="zc3OXPmS9KC0s0hsTYdk-40" value="04" style="edgeLabel;html=1;align=center;verticalAlign=middle;resizable=0;points=[];" vertex="1" connectable="0" parent="zc3OXPmS9KC0s0hsTYdk-5">
          <mxGeometry x="-0.5673" relative="1" as="geometry">
            <mxPoint x="25" y="12.56" as="offset" />
          </mxGeometry>
        </mxCell>
        <mxCell id="zc3OXPmS9KC0s0hsTYdk-28" style="edgeStyle=orthogonalEdgeStyle;rounded=0;orthogonalLoop=1;jettySize=auto;html=1;exitX=0;exitY=0.5;exitDx=0;exitDy=0;entryX=0;entryY=0.5;entryDx=0;entryDy=0;" edge="1" parent="3nuBFxr9cyL0pnOWT2aG-18" source="zc3OXPmS9KC0s0hsTYdk-2" target="zc3OXPmS9KC0s0hsTYdk-25">
          <mxGeometry relative="1" as="geometry">
            <Array as="points">
              <mxPoint x="62" y="146" />
              <mxPoint x="62" y="320" />
              <mxPoint x="83" y="320" />
            </Array>
          </mxGeometry>
        </mxCell>
        <mxCell id="zc3OXPmS9KC0s0hsTYdk-42" value="05b" style="edgeLabel;html=1;align=center;verticalAlign=middle;resizable=0;points=[];" vertex="1" connectable="0" parent="zc3OXPmS9KC0s0hsTYdk-28">
          <mxGeometry x="0.2016" relative="1" as="geometry">
            <mxPoint x="20" as="offset" />
          </mxGeometry>
        </mxCell>
        <mxCell id="3nuBFxr9cyL0pnOWT2aG-9" value="&lt;font style=&quot;font-size: 11px&quot;&gt;Sensor checa o horário de operação&lt;/font&gt;" style="rounded=0;whiteSpace=wrap;html=1;" parent="3nuBFxr9cyL0pnOWT2aG-18" vertex="1">
          <mxGeometry x="52.120000000000005" y="13.25" width="90" height="60" as="geometry" />
        </mxCell>
        <mxCell id="zc3OXPmS9KC0s0hsTYdk-29" style="edgeStyle=orthogonalEdgeStyle;rounded=0;orthogonalLoop=1;jettySize=auto;html=1;entryX=0.5;entryY=1;entryDx=0;entryDy=0;" edge="1" parent="3nuBFxr9cyL0pnOWT2aG-18" source="zc3OXPmS9KC0s0hsTYdk-25" target="zc3OXPmS9KC0s0hsTYdk-18">
          <mxGeometry relative="1" as="geometry">
            <Array as="points">
              <mxPoint x="243" y="257" />
              <mxPoint x="271" y="257" />
            </Array>
          </mxGeometry>
        </mxCell>
        <mxCell id="zc3OXPmS9KC0s0hsTYdk-30" value="Não" style="edgeLabel;html=1;align=center;verticalAlign=middle;resizable=0;points=[];labelBorderColor=#000000;" vertex="1" connectable="0" parent="zc3OXPmS9KC0s0hsTYdk-29">
          <mxGeometry x="-0.3681" relative="1" as="geometry">
            <mxPoint x="-27.889999999999997" y="-10.64" as="offset" />
          </mxGeometry>
        </mxCell>
        <mxCell id="zc3OXPmS9KC0s0hsTYdk-46" value="06b" style="edgeLabel;html=1;align=center;verticalAlign=middle;resizable=0;points=[];" vertex="1" connectable="0" parent="zc3OXPmS9KC0s0hsTYdk-29">
          <mxGeometry x="-0.1626" relative="1" as="geometry">
            <mxPoint x="18.07" y="28.97" as="offset" />
          </mxGeometry>
        </mxCell>
        <mxCell id="zc3OXPmS9KC0s0hsTYdk-33" style="edgeStyle=orthogonalEdgeStyle;rounded=0;orthogonalLoop=1;jettySize=auto;html=1;entryX=0;entryY=0.5;entryDx=0;entryDy=0;" edge="1" parent="3nuBFxr9cyL0pnOWT2aG-18" target="zc3OXPmS9KC0s0hsTYdk-11">
          <mxGeometry relative="1" as="geometry">
            <mxPoint x="320.3185981308412" y="161.32" as="sourcePoint" />
            <mxPoint x="399.62" y="161.29500000000002" as="targetPoint" />
            <Array as="points">
              <mxPoint x="363" y="161" />
              <mxPoint x="363" y="186" />
            </Array>
          </mxGeometry>
        </mxCell>
        <mxCell id="zc3OXPmS9KC0s0hsTYdk-34" value="Não" style="edgeLabel;html=1;align=center;verticalAlign=middle;resizable=0;points=[];labelBorderColor=#000000;" vertex="1" connectable="0" parent="zc3OXPmS9KC0s0hsTYdk-33">
          <mxGeometry x="-0.4149" y="-1" relative="1" as="geometry">
            <mxPoint x="-24.65" y="17.680000000000007" as="offset" />
          </mxGeometry>
        </mxCell>
        <mxCell id="zc3OXPmS9KC0s0hsTYdk-48" value="07c" style="edgeLabel;html=1;align=center;verticalAlign=middle;resizable=0;points=[];" vertex="1" connectable="0" parent="zc3OXPmS9KC0s0hsTYdk-33">
          <mxGeometry x="-0.3342" y="-1" relative="1" as="geometry">
            <mxPoint x="1" y="-26.82" as="offset" />
          </mxGeometry>
        </mxCell>
        <mxCell id="zc3OXPmS9KC0s0hsTYdk-18" value="&lt;div&gt;&lt;font style=&quot;font-size: 11px&quot;&gt;Checar se &lt;br&gt;&lt;/font&gt;&lt;/div&gt;&lt;div&gt;&lt;font style=&quot;font-size: 11px&quot;&gt;credenciais são &lt;br&gt;&lt;/font&gt;&lt;/div&gt;&lt;div&gt;&lt;font style=&quot;font-size: 11px&quot;&gt;válidas&lt;/font&gt;&lt;/div&gt;" style="rhombus;whiteSpace=wrap;html=1;" vertex="1" parent="3nuBFxr9cyL0pnOWT2aG-18">
          <mxGeometry x="202.12" y="93" width="137.5" height="107" as="geometry" />
        </mxCell>
        <mxCell id="zc3OXPmS9KC0s0hsTYdk-2" value="&lt;div&gt;&lt;font style=&quot;font-size: 11px&quot;&gt;Se a aproximação &lt;br&gt;&lt;/font&gt;&lt;/div&gt;&lt;div&gt;&lt;font style=&quot;font-size: 11px&quot;&gt;ocorrer em horário de funcionamento&lt;/font&gt;&lt;/div&gt;" style="rhombus;whiteSpace=wrap;html=1;" vertex="1" parent="3nuBFxr9cyL0pnOWT2aG-18">
          <mxGeometry x="28.37" y="93" width="137.5" height="107" as="geometry" />
        </mxCell>
        <mxCell id="zc3OXPmS9KC0s0hsTYdk-21" style="edgeStyle=orthogonalEdgeStyle;rounded=0;orthogonalLoop=1;jettySize=auto;html=1;exitX=0.5;exitY=1;exitDx=0;exitDy=0;" edge="1" parent="3nuBFxr9cyL0pnOWT2aG-18" source="zc3OXPmS9KC0s0hsTYdk-2" target="zc3OXPmS9KC0s0hsTYdk-9">
          <mxGeometry relative="1" as="geometry">
            <Array as="points">
              <mxPoint x="97" y="220" />
              <mxPoint x="393" y="220" />
              <mxPoint x="393" y="95" />
            </Array>
          </mxGeometry>
        </mxCell>
        <mxCell id="zc3OXPmS9KC0s0hsTYdk-22" value="Sim" style="edgeLabel;html=1;align=center;verticalAlign=middle;resizable=0;points=[];labelBorderColor=#000000;" vertex="1" connectable="0" parent="zc3OXPmS9KC0s0hsTYdk-21">
          <mxGeometry x="-0.9517" relative="1" as="geometry">
            <mxPoint x="38" y="-12.67" as="offset" />
          </mxGeometry>
        </mxCell>
        <mxCell id="zc3OXPmS9KC0s0hsTYdk-64" value="05c" style="edgeLabel;html=1;align=center;verticalAlign=middle;resizable=0;points=[];" vertex="1" connectable="0" parent="zc3OXPmS9KC0s0hsTYdk-21">
          <mxGeometry x="-0.3422" relative="1" as="geometry">
            <mxPoint x="-20.5" y="-19" as="offset" />
          </mxGeometry>
        </mxCell>
        <mxCell id="zc3OXPmS9KC0s0hsTYdk-25" value="&lt;div&gt;&lt;font style=&quot;font-size: 11px&quot;&gt;Checar se o &lt;br&gt;&lt;/font&gt;&lt;/div&gt;&lt;div&gt;&lt;font style=&quot;font-size: 11px&quot;&gt;indivíduo se recusou a &lt;br&gt;&lt;/font&gt;&lt;/div&gt;&lt;div&gt;&lt;font style=&quot;font-size: 11px&quot;&gt;se identificar por &lt;br&gt;&lt;/font&gt;&lt;/div&gt;&lt;div&gt;&lt;font style=&quot;font-size: 11px&quot;&gt;meio de um timer&lt;/font&gt;&lt;/div&gt;" style="rhombus;whiteSpace=wrap;html=1;" vertex="1" parent="3nuBFxr9cyL0pnOWT2aG-18">
          <mxGeometry x="94" y="266" width="187.5" height="107" as="geometry" />
        </mxCell>
        <mxCell id="3nuBFxr9cyL0pnOWT2aG-23" value="" style="swimlane;connectable=0;startSize=0;html=1;whiteSpace=wrap;collapsible=0;recursiveResize=0;expand=0;" parent="3nuBFxr9cyL0pnOWT2aG-15" vertex="1">
          <mxGeometry x="635" width="155" height="396" as="geometry" />
        </mxCell>
        <mxCell id="zc3OXPmS9KC0s0hsTYdk-9" value="&lt;font style=&quot;font-size: 11px&quot;&gt;Sensor libera a abertura da porta e alerta o mecanismo de abertura automatizada&lt;/font&gt;" style="rounded=0;whiteSpace=wrap;html=1;" vertex="1" parent="3nuBFxr9cyL0pnOWT2aG-23">
          <mxGeometry x="30" y="31" width="95" height="91.75" as="geometry" />
        </mxCell>
        <mxCell id="zc3OXPmS9KC0s0hsTYdk-11" value="&lt;font style=&quot;font-size: 11px&quot;&gt;Sensor reporta a aproximação de indivíduo não autorizado mantém o fechamento&lt;br&gt;&lt;/font&gt;" style="rounded=0;whiteSpace=wrap;html=1;" vertex="1" parent="3nuBFxr9cyL0pnOWT2aG-23">
          <mxGeometry x="30" y="141" width="95" height="89.37" as="geometry" />
        </mxCell>
        <mxCell id="zc3OXPmS9KC0s0hsTYdk-12" value="&lt;font style=&quot;font-size: 11px&quot;&gt;Sensor alerta o mecanismo de contato às autoridades e mantém o fechamento&lt;/font&gt;" style="rounded=0;whiteSpace=wrap;html=1;" vertex="1" parent="3nuBFxr9cyL0pnOWT2aG-23">
          <mxGeometry x="30" y="251" width="95" height="91.75" as="geometry" />
        </mxCell>
        <mxCell id="zc3OXPmS9KC0s0hsTYdk-10" style="edgeStyle=orthogonalEdgeStyle;rounded=0;orthogonalLoop=1;jettySize=auto;html=1;entryX=0;entryY=0.5;entryDx=0;entryDy=0;" edge="1" parent="3nuBFxr9cyL0pnOWT2aG-15" target="3nuBFxr9cyL0pnOWT2aG-9">
          <mxGeometry relative="1" as="geometry">
            <mxPoint x="157.5" y="43.275862068965466" as="sourcePoint" />
          </mxGeometry>
        </mxCell>
        <mxCell id="zc3OXPmS9KC0s0hsTYdk-39" value="&lt;div&gt;03&lt;/div&gt;" style="edgeLabel;html=1;align=center;verticalAlign=middle;resizable=0;points=[];" vertex="1" connectable="0" parent="zc3OXPmS9KC0s0hsTYdk-10">
          <mxGeometry x="0.289" y="1" relative="1" as="geometry">
            <mxPoint x="-18.53" y="-12.29" as="offset" />
          </mxGeometry>
        </mxCell>
        <mxCell id="zc3OXPmS9KC0s0hsTYdk-20" style="edgeStyle=orthogonalEdgeStyle;rounded=0;orthogonalLoop=1;jettySize=auto;html=1;" edge="1" parent="3nuBFxr9cyL0pnOWT2aG-15" source="zc3OXPmS9KC0s0hsTYdk-18">
          <mxGeometry relative="1" as="geometry">
            <mxPoint x="665" y="61" as="targetPoint" />
            <Array as="points">
              <mxPoint x="570" y="110" />
              <mxPoint x="570" y="61" />
            </Array>
          </mxGeometry>
        </mxCell>
        <mxCell id="zc3OXPmS9KC0s0hsTYdk-23" value="Sim" style="edgeLabel;html=1;align=center;verticalAlign=middle;resizable=0;points=[];labelBorderColor=#000000;" vertex="1" connectable="0" parent="zc3OXPmS9KC0s0hsTYdk-20">
          <mxGeometry x="-0.7966" y="1" relative="1" as="geometry">
            <mxPoint x="23" y="-16" as="offset" />
          </mxGeometry>
        </mxCell>
        <mxCell id="zc3OXPmS9KC0s0hsTYdk-66" value="07a" style="edgeLabel;html=1;align=center;verticalAlign=middle;resizable=0;points=[];" vertex="1" connectable="0" parent="zc3OXPmS9KC0s0hsTYdk-20">
          <mxGeometry x="0.3147" y="1" relative="1" as="geometry">
            <mxPoint x="8.33" y="-19" as="offset" />
          </mxGeometry>
        </mxCell>
        <mxCell id="zc3OXPmS9KC0s0hsTYdk-61" style="edgeStyle=orthogonalEdgeStyle;rounded=0;orthogonalLoop=1;jettySize=auto;html=1;entryX=0;entryY=0.5;entryDx=0;entryDy=0;" edge="1" parent="3nuBFxr9cyL0pnOWT2aG-15" source="zc3OXPmS9KC0s0hsTYdk-25" target="zc3OXPmS9KC0s0hsTYdk-12">
          <mxGeometry relative="1" as="geometry">
            <Array as="points">
              <mxPoint x="560" y="346" />
              <mxPoint x="560" y="297" />
            </Array>
          </mxGeometry>
        </mxCell>
        <mxCell id="zc3OXPmS9KC0s0hsTYdk-62" value="Sim" style="edgeLabel;html=1;align=center;verticalAlign=middle;resizable=0;points=[];labelBorderColor=#000000;" vertex="1" connectable="0" parent="zc3OXPmS9KC0s0hsTYdk-61">
          <mxGeometry x="-0.1098" y="-1" relative="1" as="geometry">
            <mxPoint x="-31" y="-17.1" as="offset" />
          </mxGeometry>
        </mxCell>
        <mxCell id="zc3OXPmS9KC0s0hsTYdk-63" value="07b" style="edgeLabel;html=1;align=center;verticalAlign=middle;resizable=0;points=[];" vertex="1" connectable="0" parent="zc3OXPmS9KC0s0hsTYdk-61">
          <mxGeometry x="-0.0788" relative="1" as="geometry">
            <mxPoint x="30" y="-12.940000000000001" as="offset" />
          </mxGeometry>
        </mxCell>
        <mxCell id="zc3OXPmS9KC0s0hsTYdk-15" style="edgeStyle=orthogonalEdgeStyle;rounded=0;orthogonalLoop=1;jettySize=auto;html=1;entryX=0.5;entryY=1;entryDx=0;entryDy=0;exitX=1;exitY=0.5;exitDx=0;exitDy=0;" edge="1" parent="3nuBFxr9cyL0pnOWT2aG-1" source="zc3OXPmS9KC0s0hsTYdk-2" target="zc3OXPmS9KC0s0hsTYdk-14">
          <mxGeometry relative="1" as="geometry" />
        </mxCell>
        <mxCell id="zc3OXPmS9KC0s0hsTYdk-16" value="Não" style="edgeLabel;html=1;align=center;verticalAlign=middle;resizable=0;points=[];labelBorderColor=#000000;" vertex="1" connectable="0" parent="zc3OXPmS9KC0s0hsTYdk-15">
          <mxGeometry x="-0.758" relative="1" as="geometry">
            <mxPoint x="-21.25" y="-18.86" as="offset" />
          </mxGeometry>
        </mxCell>
        <mxCell id="zc3OXPmS9KC0s0hsTYdk-41" value="05a" style="edgeLabel;html=1;align=center;verticalAlign=middle;resizable=0;points=[];" vertex="1" connectable="0" parent="zc3OXPmS9KC0s0hsTYdk-15">
          <mxGeometry x="-0.9094" relative="1" as="geometry">
            <mxPoint x="25.85" y="-86.51" as="offset" />
          </mxGeometry>
        </mxCell>
        <mxCell id="zc3OXPmS9KC0s0hsTYdk-19" style="edgeStyle=orthogonalEdgeStyle;rounded=0;orthogonalLoop=1;jettySize=auto;html=1;entryX=0.5;entryY=0;entryDx=0;entryDy=0;" edge="1" parent="3nuBFxr9cyL0pnOWT2aG-1" source="zc3OXPmS9KC0s0hsTYdk-14" target="zc3OXPmS9KC0s0hsTYdk-18">
          <mxGeometry relative="1" as="geometry">
            <Array as="points">
              <mxPoint x="478" y="150" />
            </Array>
          </mxGeometry>
        </mxCell>
        <mxCell id="zc3OXPmS9KC0s0hsTYdk-45" value="06" style="edgeLabel;html=1;align=center;verticalAlign=middle;resizable=0;points=[];" vertex="1" connectable="0" parent="zc3OXPmS9KC0s0hsTYdk-19">
          <mxGeometry x="-0.2444" y="1" relative="1" as="geometry">
            <mxPoint x="25.75" y="13.69" as="offset" />
          </mxGeometry>
        </mxCell>
        <mxCell id="zc3OXPmS9KC0s0hsTYdk-36" style="edgeStyle=orthogonalEdgeStyle;rounded=0;orthogonalLoop=1;jettySize=auto;html=1;entryX=0.5;entryY=1;entryDx=0;entryDy=0;" edge="1" parent="3nuBFxr9cyL0pnOWT2aG-1" source="zc3OXPmS9KC0s0hsTYdk-9" target="zc3OXPmS9KC0s0hsTYdk-35">
          <mxGeometry relative="1" as="geometry" />
        </mxCell>
        <mxCell id="zc3OXPmS9KC0s0hsTYdk-49" value="08" style="edgeLabel;html=1;align=center;verticalAlign=middle;resizable=0;points=[];" vertex="1" connectable="0" parent="zc3OXPmS9KC0s0hsTYdk-36">
          <mxGeometry x="-0.2478" relative="1" as="geometry">
            <mxPoint x="37.5" y="-25.71" as="offset" />
          </mxGeometry>
        </mxCell>
        <mxCell id="zc3OXPmS9KC0s0hsTYdk-67" style="edgeStyle=orthogonalEdgeStyle;rounded=0;orthogonalLoop=1;jettySize=auto;html=1;exitX=0.5;exitY=1;exitDx=0;exitDy=0;entryX=0.5;entryY=0;entryDx=0;entryDy=0;" edge="1" parent="3nuBFxr9cyL0pnOWT2aG-1" source="zc3OXPmS9KC0s0hsTYdk-56" target="zc3OXPmS9KC0s0hsTYdk-55">
          <mxGeometry relative="1" as="geometry" />
        </mxCell>
        <mxCell id="zc3OXPmS9KC0s0hsTYdk-68" value="02" style="edgeLabel;html=1;align=center;verticalAlign=middle;resizable=0;points=[];" vertex="1" connectable="0" parent="zc3OXPmS9KC0s0hsTYdk-67">
          <mxGeometry x="-0.2881" y="1" relative="1" as="geometry">
            <mxPoint x="15.5" as="offset" />
          </mxGeometry>
        </mxCell>
      </root>
    </mxGraphModel>
  </diagram>
</mxfile>
